<?xml version="1.0" standalone="no"?>
<!DOCTYPE svg PUBLIC "-//W3C//DTD SVG 20010904//EN"
 "http://www.w3.org/TR/2001/REC-SVG-20010904/DTD/svg10.dtd">
<svg version="1.0" xmlns="http://www.w3.org/2000/svg"
 width="700.000000pt" height="700.000000pt" viewBox="0 0 700.000000 700.000000"
 preserveAspectRatio="xMidYMid meet">
<metadata>
Created by potrace 1.14, written by Peter Selinger 2001-2017
</metadata>
<g transform="translate(0.000000,700.000000) scale(0.100000,-0.100000)"
fill="#000000" stroke="none">
<path d="M3245 6787 c-83 -37 -165 -88 -165 -103 0 -18 10 -18 35 -1 11 8 56
33 100 57 44 24 89 49 100 57 19 13 19 13 0 13 -11 -1 -43 -11 -70 -23z"/>
<path d="M3440 6729 c-25 -11 -69 -30 -98 -41 -58 -22 -66 -34 -11 -17 19 5
67 10 107 10 77 0 82 5 29 26 -27 11 -5 12 133 7 120 -4 162 -3 154 5 -9 10
-168 30 -239 31 -16 0 -50 -10 -75 -21z"/>
<path d="M3175 6690 c4 -6 11 -8 16 -5 14 9 11 15 -7 15 -8 0 -12 -5 -9 -10z"/>
<path d="M3226 6662 c-3 -5 8 -21 23 -36 27 -26 31 -27 70 -16 27 7 78 8 143
4 84 -6 100 -5 96 7 -3 9 -18 14 -42 13 -28 -1 -34 2 -26 11 8 10 -14 11 -103
7 -79 -3 -116 -1 -121 7 -8 13 -33 15 -40 3z"/>
<path d="M3820 6661 c0 -5 19 -12 43 -16 l42 -8 -35 -7 c-33 -7 -32 -7 15 -9
28 -1 70 -7 95 -14 25 -7 58 -11 75 -8 21 4 46 -1 80 -18 71 -35 152 -61 189
-61 10 0 51 -14 93 -30 84 -34 153 -48 153 -32 0 12 -122 71 -165 79 -16 4
-34 12 -40 20 -5 7 -51 20 -100 28 -50 8 -110 21 -133 29 -24 9 -66 18 -95 22
-29 3 -79 12 -112 20 -69 16 -105 18 -105 5z"/>
<path d="M3586 6641 c-14 -5 -16 -10 -7 -15 15 -10 61 1 61 14 0 12 -26 12
-54 1z"/>
<path d="M3002 6610 c-18 -31 -66 -60 -100 -60 -28 0 -82 -20 -82 -31 0 -19
156 17 191 44 9 7 16 19 16 27 0 8 4 23 8 33 12 29 -15 19 -33 -13z"/>
<path d="M3653 6624 c-3 -8 -1 -20 4 -25 14 -14 90 -14 107 0 9 8 24 10 33 7
14 -6 15 -4 6 5 -12 12 -79 28 -121 29 -12 0 -25 -7 -29 -16z"/>
<path d="M3163 6623 c-7 -2 -13 -9 -13 -15 0 -14 43 -6 48 10 4 12 -12 15 -35
5z"/>
<path d="M2861 6599 c-12 -12 -20 -23 -17 -26 7 -8 56 25 56 37 0 16 -14 12
-39 -11z"/>
<path d="M3056 6577 c-16 -12 -17 -15 -3 -20 20 -8 70 6 75 21 5 17 -49 16
-72 -1z"/>
<path d="M3960 6585 c0 -9 44 -23 54 -18 4 3 2 9 -5 14 -15 10 -49 12 -49 4z"/>
<path d="M4063 6557 c5 -15 37 -22 37 -9 0 5 -9 12 -21 15 -13 3 -19 1 -16 -6z"/>
<path d="M3447 6553 c-42 -11 -1 -18 92 -15 59 2 99 7 96 13 -6 9 -154 11
-188 2z"/>
<path d="M3832 6548 c3 -7 36 -24 75 -38 39 -14 84 -34 100 -46 47 -34 233
-128 240 -121 8 8 -26 47 -41 47 -7 0 -19 9 -29 20 -9 11 -23 20 -31 20 -8 0
-37 16 -66 35 -107 72 -261 123 -248 83z"/>
<path d="M3310 6540 c0 -13 70 -13 90 0 11 7 0 10 -37 10 -29 0 -53 -4 -53
-10z"/>
<path d="M3013 6514 c-7 -18 11 -39 26 -30 17 11 13 46 -4 46 -9 0 -18 -7 -22
-16z"/>
<path d="M3088 6523 c7 -3 16 -2 19 1 4 3 -2 6 -13 5 -11 0 -14 -3 -6 -6z"/>
<path d="M4135 6520 c3 -5 8 -10 11 -10 2 0 4 5 4 10 0 6 -5 10 -11 10 -5 0
-7 -4 -4 -10z"/>
<path d="M3800 6490 c33 -26 50 -26 20 0 -13 11 -28 20 -34 20 -6 0 0 -9 14
-20z"/>
<path d="M4237 6493 c-13 -13 -7 -23 26 -43 62 -38 96 -12 38 29 -30 21 -52
26 -64 14z"/>
<path d="M2599 6472 l-22 -19 43 -7 c46 -7 66 3 57 28 -9 22 -50 20 -78 -2z"/>
<path d="M3175 6479 c-4 -6 -5 -12 -3 -14 7 -7 48 7 48 16 0 13 -37 11 -45 -2z"/>
<path d="M2720 6455 c0 -9 9 -15 25 -15 28 0 34 15 9 24 -25 10 -34 7 -34 -9z"/>
<path d="M2410 6446 c-25 -7 -76 -26 -115 -43 -38 -17 -96 -41 -127 -53 -32
-12 -58 -26 -58 -31 0 -5 4 -9 8 -9 20 0 114 32 175 60 58 26 78 30 157 30 83
0 107 -8 78 -26 -6 -4 -43 -7 -82 -6 -99 3 -213 -35 -261 -86 -19 -20 -35 -42
-35 -49 0 -15 28 -6 55 17 11 10 31 21 45 25 14 4 32 13 40 20 40 32 293 56
343 31 64 -31 -59 73 -137 116 -37 20 -30 20 -86 4z"/>
<path d="M2805 6440 c10 -11 23 -19 28 -17 6 2 21 -7 34 -19 28 -26 63 -37 63
-21 -1 20 -87 77 -116 77 -27 0 -27 0 -9 -20z"/>
<path d="M3520 6440 c-198 -21 -230 -26 -230 -35 0 -10 23 -11 288 -7 158 2
198 10 175 33 -15 15 -127 19 -233 9z"/>
<path d="M4372 6419 c2 -7 10 -15 17 -17 8 -3 12 1 9 9 -2 7 -10 15 -17 17 -8
3 -12 -1 -9 -9z"/>
<path d="M4487 6389 c18 -36 59 -69 87 -69 31 -1 92 -31 169 -83 38 -26 75
-47 83 -47 18 0 94 -69 94 -86 0 -7 10 -24 23 -37 58 -64 141 -193 132 -207
-3 -5 0 -12 5 -15 6 -4 15 -18 20 -31 5 -13 14 -24 20 -24 13 0 13 17 0 25 -5
3 -10 15 -10 25 0 10 -19 56 -42 101 -44 88 -143 203 -211 246 -21 13 -64 48
-95 76 -73 67 -141 114 -192 132 -46 16 -55 4 -10 -15 17 -7 33 -17 36 -22 3
-5 -11 -2 -33 7 -21 9 -44 19 -51 22 -10 4 -11 8 -2 13 7 5 3 9 -12 12 -24 4
-24 4 -11 -23z"/>
<path d="M4045 6390 c19 -21 45 -27 45 -10 0 11 -33 30 -51 30 -8 0 -5 -7 6
-20z"/>
<path d="M4266 6371 c26 -44 26 -44 139 -81 55 -17 125 -42 155 -55 30 -13 66
-26 80 -30 40 -12 162 -74 197 -101 45 -34 54 -11 12 33 -34 35 -136 93 -163
93 -8 0 -84 34 -168 75 -84 41 -171 76 -193 79 -22 2 -49 8 -59 12 -19 7 -19
7 0 -25z m64 -16 c7 -8 8 -15 2 -15 -5 0 -15 7 -22 15 -7 8 -8 15 -2 15 5 0
15 -7 22 -15z"/>
<path d="M3389 6356 c12 -15 60 -30 68 -22 6 6 -51 36 -68 36 -9 0 -9 -3 0
-14z"/>
<path d="M3035 6320 c-3 -5 1 -10 10 -10 9 0 13 5 10 10 -3 6 -8 10 -10 10 -2
0 -7 -4 -10 -10z"/>
<path d="M2140 6295 c-7 -9 -8 -15 -2 -15 5 0 12 7 16 15 3 8 4 15 2 15 -2 0
-9 -7 -16 -15z"/>
<path d="M2820 6281 c0 -28 35 -48 96 -57 79 -10 75 10 -8 43 -40 15 -76 30
-80 31 -5 2 -8 -6 -8 -17z"/>
<path d="M4270 6280 c0 -5 7 -10 15 -10 8 0 15 5 15 10 0 6 -7 10 -15 10 -8 0
-15 -4 -15 -10z"/>
<path d="M2270 6260 c-11 -7 -4 -10 28 -10 23 0 42 5 42 10 0 13 -50 13 -70 0z"/>
<path d="M4014 6255 c-7 -18 12 -45 32 -45 17 0 18 14 4 41 -13 23 -28 25 -36
4z"/>
<path d="M3356 6231 c-6 -9 102 -23 116 -15 5 3 6 10 3 15 -8 11 -112 12 -119
0z"/>
<path d="M3500 6210 c19 -13 30 -13 30 0 0 6 -10 10 -22 10 -19 0 -20 -2 -8
-10z"/>
<path d="M2253 6197 c-22 -9 -32 -27 -15 -27 11 1 46 29 41 34 -2 2 -14 -1
-26 -7z"/>
<path d="M4097 6203 c-4 -3 -7 -9 -7 -12 0 -12 68 -43 86 -39 17 3 16 6 -8 31
-26 26 -57 35 -71 20z"/>
<path d="M4260 6194 c0 -17 24 -44 50 -57 38 -20 44 -10 18 31 -13 21 -28 32
-44 32 -13 0 -24 -3 -24 -6z"/>
<path d="M2034 6177 c-3 -9 1 -59 10 -111 9 -52 16 -150 16 -220 0 -119 1
-126 20 -126 19 0 19 5 14 88 -6 78 -4 91 16 125 19 31 20 37 6 37 -12 0 -15
8 -14 33 2 25 -1 31 -13 29 -14 -2 -17 10 -21 68 -4 70 -21 110 -34 77z"/>
<path d="M2150 6175 c-7 -9 -10 -18 -7 -21 7 -8 47 14 47 26 0 15 -26 12 -40
-5z"/>
<path d="M4372 6174 c2 -10 8 -19 13 -19 15 -1 73 -33 124 -70 25 -18 59 -37
75 -41 17 -4 41 -14 55 -21 l26 -15 -27 6 c-22 5 -25 3 -21 -14 3 -12 17 -23
32 -26 14 -3 34 -7 43 -9 32 -6 29 13 -8 49 -21 20 -41 36 -46 36 -4 0 -8 9
-8 20 0 15 -12 23 -57 36 -32 9 -76 24 -99 35 -22 10 -48 19 -56 19 -9 0 -24
8 -33 17 -16 16 -17 15 -13 -3z"/>
<path d="M3468 6173 c7 -3 16 -2 19 1 4 3 -2 6 -13 5 -11 0 -14 -3 -6 -6z"/>
<path d="M4530 6170 c0 -5 9 -10 20 -10 11 0 20 5 20 10 0 6 -9 10 -20 10 -11
0 -20 -4 -20 -10z"/>
<path d="M4606 6151 c-3 -5 1 -11 9 -15 8 -3 15 -1 15 4 0 13 -18 22 -24 11z"/>
<path d="M2141 6124 c0 -11 3 -14 6 -6 3 7 2 16 -1 19 -3 4 -6 -2 -5 -13z"/>
<path d="M3296 6124 c-40 -14 -70 -34 -63 -41 7 -7 117 38 117 48 0 12 -6 11
-54 -7z"/>
<path d="M3905 6123 c22 -15 32 -16 39 -4 3 5 -8 11 -26 13 -28 5 -29 4 -13
-9z"/>
<path d="M2197 6102 c-10 -10 -17 -29 -17 -43 1 -24 1 -23 31 9 16 18 27 37
24 42 -9 15 -20 12 -38 -8z"/>
<path d="M3995 6104 c-23 -17 -12 -31 33 -40 33 -7 46 9 16 20 -8 3 -13 10
-10 15 10 16 -19 19 -39 5z"/>
<path d="M4665 6111 c-7 -12 9 -22 51 -31 42 -10 44 4 4 25 -34 17 -47 19 -55
6z"/>
<path d="M2111 6094 c0 -11 3 -14 6 -6 3 7 2 16 -1 19 -3 4 -6 -2 -5 -13z"/>
<path d="M3745 6100 c3 -5 10 -10 16 -10 5 0 9 5 9 10 0 6 -7 10 -16 10 -8 0
-12 -4 -9 -10z"/>
<path d="M2267 6062 c-53 -54 -46 -75 8 -22 25 24 45 48 45 52 0 16 -17 7 -53
-30z"/>
<path d="M4231 6066 c-13 -16 22 -58 43 -50 18 7 10 37 -14 52 -14 8 -21 8
-29 -2z"/>
<path d="M2411 6047 c-50 -20 -102 -69 -89 -82 3 -4 21 7 39 23 19 16 62 40
97 52 34 12 62 24 62 26 0 11 -62 0 -109 -19z"/>
<path d="M3945 6040 c3 -5 13 -10 21 -10 8 0 12 5 9 10 -3 6 -13 10 -21 10 -8
0 -12 -4 -9 -10z"/>
<path d="M4770 6025 c0 -10 10 -15 33 -15 30 1 31 1 13 15 -25 19 -46 19 -46
0z"/>
<path d="M4860 6022 c0 -10 33 -42 43 -42 12 0 7 18 -9 34 -17 17 -34 21 -34
8z"/>
<path d="M3855 6000 c-8 -13 25 -13 45 0 12 8 9 10 -12 10 -15 0 -30 -4 -33
-10z"/>
<path d="M3990 5996 c0 -2 7 -6 15 -10 8 -3 15 -1 15 4 0 6 -7 10 -15 10 -8 0
-15 -2 -15 -4z"/>
<path d="M4035 5975 c-22 -8 -35 -14 -30 -15 28 -5 155 -9 155 -5 0 8 -58 35
-72 34 -7 -1 -31 -7 -53 -14z"/>
<path d="M4790 5981 c0 -5 5 -13 10 -16 6 -3 10 -2 10 4 0 5 -4 13 -10 16 -5
3 -10 2 -10 -4z"/>
<path d="M4330 5963 c0 -6 21 -38 46 -72 53 -71 50 -101 -5 -48 -20 20 -47 41
-61 47 -14 6 -36 17 -50 25 -29 17 -70 20 -70 5 0 -5 18 -19 39 -30 22 -11 42
-24 46 -30 3 -5 17 -10 31 -10 21 0 24 -3 18 -25 -5 -21 -3 -25 14 -25 12 0
23 -4 27 -9 3 -6 -10 -5 -32 1 -20 5 -74 8 -119 6 -86 -3 -103 5 -32 17 l42 7
-23 19 c-21 17 -35 19 -120 13 -180 -10 -282 -24 -321 -43 -24 -11 -43 -15
-53 -10 -14 8 -70 -5 -92 -21 -5 -4 -35 -11 -65 -15 -55 -7 -100 -27 -100 -45
0 -5 14 -4 32 2 24 9 33 8 36 -1 3 -8 8 -9 16 -2 6 5 24 12 39 15 15 2 31 7
37 11 5 3 10 1 10 -4 0 -19 30 -12 117 29 85 40 186 68 134 37 -40 -24 -7 -30
126 -22 89 5 123 4 119 -4 -5 -8 48 -11 178 -11 l186 0 65 -59 c55 -50 109
-81 121 -69 2 2 -19 22 -46 43 -28 22 -53 47 -55 56 -6 18 -74 69 -92 69 -14
0 -37 56 -28 70 9 15 -20 42 -65 60 -19 8 -38 19 -42 24 -5 8 -8 7 -8 -1z"/>
<path d="M4874 5945 c11 -8 22 -12 25 -9 6 6 -19 24 -34 24 -5 -1 -1 -7 9 -15z"/>
<path d="M4905 5920 c-3 -5 -1 -10 4 -10 6 0 11 5 11 10 0 6 -2 10 -4 10 -3 0
-8 -4 -11 -10z"/>
<path d="M4005 5911 c-8 -13 20 -20 92 -22 70 -3 89 5 49 21 -34 13 -133 13
-141 1z"/>
<path d="M4570 5901 c-18 -12 -8 -16 63 -26 26 -3 47 -9 47 -13 0 -4 23 -8 51
-9 99 -3 25 40 -89 52 -32 3 -64 1 -72 -4z"/>
<path d="M4860 5882 c0 -6 6 -12 13 -15 6 -2 -7 -7 -30 -11 -63 -11 -52 -27
15 -24 54 2 62 -1 117 -40 32 -23 62 -42 67 -42 4 0 17 -9 28 -20 22 -22 40
-26 40 -9 0 29 -86 105 -149 132 -86 37 -101 41 -101 29z"/>
<path d="M2400 5735 c0 -16 16 -20 24 -6 3 5 -1 11 -9 15 -9 3 -15 0 -15 -9z"/>
<path d="M4780 5740 c0 -5 7 -10 16 -10 8 0 12 5 9 10 -3 6 -10 10 -16 10 -5
0 -9 -4 -9 -10z"/>
<path d="M3401 5733 c0 -7 -8 -13 -16 -13 -16 0 -20 -15 -7 -24 15 -9 34 11
29 30 -3 11 -5 13 -6 7z"/>
<path d="M3431 5724 c0 -11 3 -14 6 -6 3 7 2 16 -1 19 -3 4 -6 -2 -5 -13z"/>
<path d="M4990 5724 c0 -25 40 -84 56 -84 8 0 14 5 14 11 0 5 5 7 10 4 6 -3
10 -17 10 -31 0 -19 7 -28 30 -36 25 -8 28 -13 19 -25 -10 -11 -7 -19 17 -41
17 -15 42 -35 57 -45 15 -10 32 -29 37 -42 13 -35 27 -38 33 -8 6 33 -31 82
-80 107 -18 8 -33 19 -34 23 0 5 -2 21 -3 37 -2 33 -68 99 -94 94 -10 -2 -24
8 -34 24 -20 31 -38 37 -38 12z"/>
<path d="M2288 5723 c-8 -19 -71 -63 -80 -57 -7 4 -8 2 -4 -5 11 -17 -30 -117
-65 -160 -16 -21 -31 -49 -31 -62 -1 -14 -25 -49 -55 -82 -56 -61 -70 -104
-32 -94 19 5 20 4 5 -12 -9 -10 -23 -49 -30 -87 -8 -38 -20 -93 -27 -121 -24
-101 15 -75 79 52 19 39 52 135 74 219 43 167 102 305 141 331 14 9 33 27 41
40 13 19 13 25 2 35 -8 6 -16 7 -18 3z m-218 -476 c0 -2 -12 -19 -26 -38 -23
-29 -25 -31 -19 -9 9 29 24 50 36 50 5 0 9 -1 9 -3z"/>
<path d="M4102 5719 c-24 -6 -42 -13 -39 -15 2 -2 33 -6 68 -8 105 -7 269 -25
279 -31 24 -15 7 16 -17 32 -19 13 -50 19 -103 20 -41 1 -91 4 -110 7 -19 2
-55 0 -78 -5z"/>
<path d="M5165 5713 c4 -10 15 -38 23 -63 17 -50 29 -70 44 -70 16 0 1 59 -28
107 -24 42 -54 61 -39 26z"/>
<path d="M2161 5703 c-9 -16 -12 -16 -20 -3 -6 8 -13 11 -17 7 -4 -4 2 -16 14
-27 25 -24 36 -26 28 -5 -3 8 -1 15 3 15 5 0 11 7 15 15 8 21 -11 19 -23 -2z"/>
<path d="M3620 5679 c0 -5 5 -7 10 -4 6 3 10 8 10 11 0 2 -4 4 -10 4 -5 0 -10
-5 -10 -11z"/>
<path d="M3998 5683 c6 -2 18 -2 25 0 6 3 1 5 -13 5 -14 0 -19 -2 -12 -5z"/>
<path d="M3280 5670 c0 -5 7 -7 15 -4 8 4 15 8 15 10 0 2 -7 4 -15 4 -8 0 -15
-4 -15 -10z"/>
<path d="M4830 5667 c0 -8 28 -28 61 -45 61 -31 89 -38 102 -25 10 9 -13 33
-33 33 -9 0 -39 11 -66 25 -56 29 -64 30 -64 12z"/>
<path d="M3220 5650 c-13 -8 -12 -10 3 -10 9 0 17 5 17 10 0 12 -1 12 -20 0z"/>
<path d="M4601 5624 l-23 -12 22 -7 c12 -4 27 -2 33 4 18 18 -5 29 -32 15z"/>
<path d="M4340 5603 c0 -15 23 -33 43 -33 30 0 16 34 -16 38 -15 2 -27 -1 -27
-5z"/>
<path d="M4535 5590 c3 -5 8 -10 11 -10 2 0 4 5 4 10 0 6 -5 10 -11 10 -5 0
-7 -4 -4 -10z"/>
<path d="M4615 5579 c-4 -6 -5 -12 -2 -15 7 -7 37 7 37 17 0 13 -27 11 -35 -2z"/>
<path d="M5020 5564 c0 -9 9 -18 20 -21 12 -3 20 -14 20 -25 0 -15 -5 -19 -20
-15 -14 4 -26 -3 -40 -23 -27 -37 -25 -40 11 -30 89 26 123 130 43 130 -24 0
-34 -4 -34 -16z"/>
<path d="M4780 5561 c0 -6 11 -11 24 -11 14 0 28 -4 31 -10 8 -13 72 -13 80
-1 8 15 -8 21 -74 27 -43 5 -61 3 -61 -5z"/>
<path d="M4606 5542 c-7 -12 22 -52 38 -52 18 0 49 37 41 49 -7 13 -72 15 -79
3z"/>
<path d="M4935 5529 c-8 -12 14 -31 30 -26 6 2 10 10 10 18 0 17 -31 24 -40 8z"/>
<path d="M2705 5510 c3 -5 15 -10 25 -10 10 0 22 5 25 10 4 6 -7 10 -25 10
-18 0 -29 -4 -25 -10z"/>
<path d="M4702 5508 c-23 -23 -14 -41 18 -34 17 3 30 2 30 -3 0 -11 56 -32 64
-24 16 16 2 32 -43 52 -58 25 -54 24 -69 9z"/>
<path d="M5125 5489 c-4 -6 -1 -15 6 -20 21 -13 31 -11 27 8 -4 20 -24 28 -33
12z"/>
<path d="M4847 5464 c-39 -21 -33 -34 13 -34 33 0 40 4 40 19 0 26 -21 32 -53
15z"/>
<path d="M4958 5473 c7 -3 16 -2 19 1 4 3 -2 6 -13 5 -11 0 -14 -3 -6 -6z"/>
<path d="M5100 5461 c0 -5 5 -13 10 -16 14 -9 12 -42 -2 -48 -7 -3 -1 -6 13
-6 15 -1 31 -7 37 -14 15 -18 41 -97 32 -97 -12 0 -33 -58 -26 -75 3 -9 18
-15 36 -15 28 0 30 2 30 39 0 22 -6 42 -12 45 -7 3 -1 4 15 2 15 -2 30 0 32 4
6 10 -45 80 -82 111 -16 13 -32 32 -35 41 -8 19 -48 44 -48 29z"/>
<path d="M4686 5431 c-19 -30 30 -54 64 -31 13 9 12 12 -4 25 -22 17 -52 20
-60 6z"/>
<path d="M4330 5415 c-8 -9 -8 -15 -2 -15 18 0 42 12 42 21 0 14 -26 10 -40
-6z"/>
<path d="M4990 5400 c0 -5 5 -10 10 -10 6 0 10 5 10 10 0 6 -4 10 -10 10 -5 0
-10 -4 -10 -10z"/>
<path d="M5045 5400 c4 -6 11 -8 16 -5 14 9 11 15 -7 15 -8 0 -12 -5 -9 -10z"/>
<path d="M4075 5390 c-3 -5 3 -10 15 -10 12 0 18 5 15 10 -3 6 -10 10 -15 10
-5 0 -12 -4 -15 -10z"/>
<path d="M4480 5390 c0 -5 5 -10 10 -10 6 0 10 5 10 10 0 6 -4 10 -10 10 -5 0
-10 -4 -10 -10z"/>
<path d="M4901 5367 c-8 -11 -5 -13 19 -9 17 2 30 8 30 13 0 14 -36 11 -49 -4z"/>
<path d="M3958 5354 c-27 -8 -48 -19 -48 -24 0 -13 0 -13 48 4 22 8 43 12 46
9 3 -3 12 2 21 11 15 15 15 16 -2 15 -10 0 -39 -7 -65 -15z"/>
<path d="M5078 5359 c-25 -14 -22 -29 6 -29 20 0 36 16 36 36 0 7 -25 4 -42
-7z"/>
<path d="M4875 5305 c-19 -14 -17 -15 25 -13 25 2 44 8 43 13 -4 17 -47 17
-68 0z"/>
<path d="M5113 5313 c-18 -7 -16 -23 2 -23 8 0 15 7 15 15 0 8 -1 15 -2 14 -2
0 -9 -3 -15 -6z"/>
<path d="M4705 5267 c-4 -14 -15 -27 -26 -30 -26 -7 -24 -27 2 -27 12 0 23 8
26 19 3 11 14 22 25 24 23 6 20 30 -5 35 -10 2 -19 -6 -22 -21z"/>
<path d="M3760 5250 c0 -5 5 -10 11 -10 5 0 7 5 4 10 -3 6 -8 10 -11 10 -2 0
-4 -4 -4 -10z"/>
<path d="M5327 5243 c-7 -12 11 -95 24 -107 10 -11 13 -86 2 -86 -4 0 -17 9
-29 21 -14 13 -24 17 -29 10 -3 -6 5 -22 19 -35 14 -13 26 -30 26 -39 0 -25
22 -32 37 -12 17 24 16 73 -2 160 -14 66 -36 107 -48 88z"/>
<path d="M5250 5180 c0 -11 7 -20 15 -20 17 0 18 2 9 24 -9 23 -24 20 -24 -4z"/>
<path d="M4138 5183 c6 -2 18 -2 25 0 6 3 1 5 -13 5 -14 0 -19 -2 -12 -5z"/>
<path d="M4881 5181 c-15 -10 -7 -31 12 -31 7 0 19 5 27 10 13 9 13 11 0 20
-18 12 -21 12 -39 1z"/>
<path d="M5112 5181 c2 -7 7 -12 11 -12 12 1 9 15 -3 20 -7 2 -11 -2 -8 -8z"/>
<path d="M5185 5158 c4 -13 9 -35 12 -50 11 -58 55 -20 46 40 -5 28 -9 32 -35
32 -27 0 -30 -3 -23 -22z"/>
<path d="M5000 5155 c-16 -20 -13 -23 38 -31 50 -8 57 8 12 31 -36 18 -35 18
-50 0z"/>
<path d="M3280 5141 c0 -20 17 -37 27 -28 7 8 -7 47 -18 47 -5 0 -9 -9 -9 -19z"/>
<path d="M4615 5130 c-7 -11 25 -11 70 0 27 7 25 8 -17 9 -26 0 -50 -3 -53 -9z"/>
<path d="M5092 5118 c3 -7 17 -14 32 -16 20 -3 27 0 24 10 -3 7 -17 14 -32 16
-20 3 -27 0 -24 -10z"/>
<path d="M4910 5075 c0 -12 60 -33 110 -39 51 -7 79 -15 122 -37 24 -12 55
-11 63 2 10 16 1 20 -57 29 -29 4 -45 8 -35 9 33 2 7 20 -36 25 -83 10 -167
16 -167 11z"/>
<path d="M3310 5058 c0 -23 161 -188 198 -203 19 -9 37 -14 39 -12 1 2 -27 35
-64 73 -37 38 -85 88 -107 112 -40 42 -66 54 -66 30z"/>
<path d="M5153 5053 c9 -2 23 -2 30 0 6 3 -1 5 -18 5 -16 0 -22 -2 -12 -5z"/>
<path d="M1921 5014 c0 -11 3 -14 6 -6 3 7 2 16 -1 19 -3 4 -6 -2 -5 -13z"/>
<path d="M2640 5001 c0 -5 -11 -12 -24 -15 -14 -3 -35 -21 -47 -39 -12 -17
-33 -44 -47 -59 -25 -27 -23 -48 5 -48 9 0 13 6 10 14 -6 14 28 50 76 79 15
10 27 26 27 37 0 11 5 20 10 20 6 0 10 5 10 10 0 6 -4 10 -10 10 -5 0 -10 -4
-10 -9z"/>
<path d="M5035 4990 c-4 -6 2 -13 12 -16 10 -3 31 -12 46 -19 47 -21 103 1 60
23 -28 15 -111 23 -118 12z"/>
<path d="M5280 4990 c0 -5 9 -14 20 -20 22 -12 27 -1 8 18 -14 14 -28 16 -28
2z"/>
<path d="M4140 4980 c0 -5 5 -10 10 -10 6 0 10 5 10 10 0 6 -4 10 -10 10 -5 0
-10 -4 -10 -10z"/>
<path d="M4085 4969 c-4 -6 -4 -13 -1 -16 8 -8 36 5 36 17 0 13 -27 13 -35 -1z"/>
<path d="M2760 4961 c-26 -4 -36 -12 -38 -28 -3 -21 0 -23 52 -23 54 0 55 0
52 28 -3 29 -13 33 -66 23z"/>
<path d="M2930 4950 c0 -5 5 -10 11 -10 5 0 7 5 4 10 -3 6 -8 10 -11 10 -2 0
-4 -4 -4 -10z"/>
<path d="M5360 4948 c0 -19 18 -43 25 -36 9 9 -4 48 -16 48 -5 0 -9 -6 -9 -12z"/>
<path d="M2863 4935 c4 -10 8 -11 52 -14 18 -2 18 -3 -5 -16 -24 -14 -24 -14
-4 -15 12 0 25 7 28 16 9 23 8 24 -14 24 -11 0 -20 4 -20 8 0 4 -9 8 -20 8
-11 0 -19 -5 -17 -11z"/>
<path d="M1963 4904 c-14 -15 -23 -39 -23 -58 0 -17 -7 -42 -16 -54 -18 -26
-13 -36 19 -39 12 -1 47 -5 78 -9 36 -4 59 -2 63 5 7 11 -17 65 -42 93 -11 13
-12 21 -4 31 9 10 8 19 -4 35 -20 29 -44 28 -71 -4z"/>
<path d="M2403 4913 c-18 -7 -16 -43 2 -43 9 0 15 9 15 25 0 14 -1 25 -2 24
-2 0 -9 -3 -15 -6z"/>
<path d="M2962 4908 c6 -16 36 -34 44 -26 3 4 4 14 1 23 -7 17 -51 21 -45 3z"/>
<path d="M4984 4897 c-8 -21 2 -35 16 -21 5 5 6 15 0 24 -8 12 -10 12 -16 -3z"/>
<path d="M5241 4884 c0 -11 3 -14 6 -6 3 7 2 16 -1 19 -3 4 -6 -2 -5 -13z"/>
<path d="M5322 4879 c7 -21 68 -53 79 -42 13 13 -17 39 -55 49 -22 5 -28 4
-24 -7z"/>
<path d="M2710 4869 c0 -4 -9 -9 -20 -12 -11 -3 -20 -13 -20 -22 0 -14 8 -16
53 -11 75 6 115 16 127 31 9 11 -4 14 -64 17 -42 2 -76 0 -76 -3z"/>
<path d="M4855 4850 c-9 -14 -8 -14 35 -30 68 -24 99 -29 93 -14 -12 32 -114
67 -128 44z"/>
<path d="M5010 4851 c0 -5 5 -13 10 -16 6 -3 10 -2 10 4 0 5 -4 13 -10 16 -5
3 -10 2 -10 -4z"/>
<path d="M5480 4829 c-24 -16 -64 -35 -87 -41 -24 -6 -46 -14 -49 -19 -3 -5
-21 -9 -40 -9 -32 0 -34 2 -24 20 8 15 8 21 -2 25 -23 9 -73 -11 -77 -30 -2
-14 2 -17 18 -12 12 3 19 1 16 -3 -8 -12 28 -30 60 -30 17 0 29 -8 37 -25 15
-33 38 -32 38 1 0 43 25 21 30 -27 6 -55 25 -53 25 3 0 40 3 44 41 65 43 24
84 87 67 104 -4 4 -28 -5 -53 -22z"/>
<path d="M2540 4830 c-17 -10 21 -19 45 -10 17 6 16 7 -7 12 -15 3 -32 2 -38
-2z"/>
<path d="M2640 4820 c0 -5 5 -10 10 -10 6 0 10 5 10 10 0 6 -4 10 -10 10 -5 0
-10 -4 -10 -10z"/>
<path d="M3135 4820 c3 -5 8 -10 11 -10 2 0 4 5 4 10 0 6 -5 10 -11 10 -5 0
-7 -4 -4 -10z"/>
<path d="M5012 4788 c6 -18 28 -21 28 -4 0 9 -7 16 -16 16 -9 0 -14 -5 -12
-12z"/>
<path d="M3255 4780 c-3 -5 -1 -10 4 -10 6 0 11 5 11 10 0 6 -2 10 -4 10 -3 0
-8 -4 -11 -10z"/>
<path d="M5095 4778 c-2 -7 -5 -25 -8 -40 -4 -24 -1 -28 20 -28 13 0 23 5 22
13 -1 6 1 20 6 31 5 12 3 21 -6 27 -19 12 -29 11 -34 -3z"/>
<path d="M3640 4756 c0 -2 7 -6 15 -10 8 -3 15 -1 15 4 0 6 -7 10 -15 10 -8 0
-15 -2 -15 -4z"/>
<path d="M2702 4693 c-23 -15 -41 -32 -38 -38 2 -6 -30 -10 -88 -10 -118 0
-187 -22 -269 -84 l-64 -48 -114 -5 c-63 -3 -106 -4 -96 -1 9 2 17 13 17 24 0
10 7 19 15 19 8 0 15 -7 15 -16 0 -14 8 -16 46 -10 26 3 60 6 75 6 34 0 39 26
12 57 -24 27 -113 77 -113 63 0 -6 10 -14 23 -19 25 -10 63 -48 55 -56 -3 -3
-31 1 -63 10 -47 12 -66 12 -97 3 -29 -8 -44 -8 -63 0 -14 7 -67 17 -118 23
-114 14 -186 -1 -294 -63 -65 -37 -73 -45 -73 -72 0 -20 8 -37 25 -51 21 -16
32 -45 60 -164 36 -148 66 -231 84 -231 16 0 14 18 -9 77 -23 62 -50 206 -50
271 l0 45 93 -6 c50 -4 146 -10 212 -13 119 -7 120 -7 103 13 -10 11 -18 25
-18 31 0 7 -12 12 -27 12 -28 1 -177 14 -287 26 -51 6 -58 5 -53 -9 3 -8 -1
-21 -9 -27 -11 -10 -14 -9 -14 9 0 40 30 82 73 102 81 36 241 18 305 -36 16
-13 40 -46 54 -74 22 -41 24 -50 12 -55 -9 -3 -12 -10 -9 -16 4 -6 11 -7 17
-4 8 5 9 -13 6 -59 -6 -72 2 -83 28 -39 9 15 26 40 37 56 11 16 23 43 26 60 6
29 10 31 54 34 42 3 47 5 42 23 -4 10 -2 19 4 19 6 0 10 -37 9 -97 -1 -83 3
-108 25 -166 80 -207 168 -314 274 -336 78 -15 142 -14 226 5 86 20 138 64
156 132 16 57 30 224 31 348 0 87 3 103 18 109 9 4 195 12 412 16 217 5 429
12 470 15 67 5 72 8 55 20 -11 8 -44 14 -81 14 -35 0 -65 4 -68 9 -8 13 16 20
35 10 11 -5 16 -3 16 6 0 11 -57 14 -321 16 -477 4 -525 1 -513 -35 2 -5 -6
-19 -18 -31 -12 -11 -28 -31 -35 -44 l-12 -24 -14 33 c-24 57 -10 92 23 59 7
-7 19 -9 28 -5 15 5 15 7 -1 23 -16 17 -16 18 5 23 42 10 21 25 -66 48 -59 16
-104 21 -135 18 -27 -3 -48 -1 -48 3 0 14 34 39 80 60 l45 21 -40 0 c-28 0
-55 -9 -83 -27z m36 -98 c54 -22 125 -101 119 -132 -2 -12 1 -24 7 -26 7 -2
11 -62 11 -188 0 -154 -3 -192 -18 -231 -37 -96 -130 -139 -250 -117 -81 14
-110 30 -184 102 -50 47 -67 73 -87 126 -29 79 -50 165 -43 183 2 7 7 -7 12
-32 4 -25 16 -67 26 -94 21 -56 79 -156 91 -156 16 0 7 49 -16 91 -13 24 -34
76 -46 114 -12 39 -27 84 -33 100 -6 17 -12 61 -15 98 l-4 69 44 42 c63 60
119 77 243 72 65 -2 115 -9 143 -21z m137 -5 l20 -9 -20 0 c-11 0 -27 4 -35 9
-13 9 -13 10 0 9 8 0 24 -4 35 -9z m300 -60 c-3 -5 -19 -10 -36 -10 -16 0 -29
5 -29 10 0 6 16 10 36 10 21 0 33 -4 29 -10z m275 0 c0 -6 -49 -10 -127 -10
-87 0 -123 3 -113 10 20 13 240 13 240 0z m-1340 -63 c0 -14 -20 -37 -32 -37
-12 0 -10 24 4 38 16 16 28 15 28 -1z"/>
<path d="M2751 4546 c-8 -9 -11 -19 -7 -23 9 -9 29 13 24 27 -2 8 -8 7 -17 -4z"/>
<path d="M2663 4538 c-15 -20 -35 -97 -28 -108 11 -18 25 -11 45 23 23 37 27
97 6 97 -7 0 -18 -6 -23 -12z"/>
<path d="M2763 4513 c-42 -28 -18 -83 36 -83 36 0 43 24 10 33 -16 4 -20 11
-17 25 9 31 -4 41 -29 25z"/>
<path d="M2790 4272 c0 -4 11 -9 25 -10 14 -1 25 3 25 8 0 6 -11 10 -25 10
-14 0 -25 -4 -25 -8z"/>
<path d="M2845 4712 c54 -24 195 -65 201 -59 13 13 -106 58 -163 63 -38 3 -51
1 -38 -4z"/>
<path d="M5250 4702 c0 -11 51 -35 58 -28 3 3 -1 12 -8 21 -13 16 -50 21 -50
7z"/>
<path d="M5175 4666 c-11 -8 -39 -16 -62 -16 -49 0 -52 -6 -22 -44 25 -32 50
-34 46 -3 -2 19 3 22 43 25 48 3 88 -16 76 -36 -4 -7 -29 -12 -57 -12 -36 0
-49 -4 -49 -14 0 -25 19 -29 81 -15 l59 13 -6 41 c-4 22 -12 46 -18 52 -19 21
-69 26 -91 9z"/>
<path d="M1972 4643 c4 -37 17 -37 58 -3 l35 29 -48 1 c-47 0 -48 -1 -45 -27z"/>
<path d="M5290 4630 c0 -11 14 -45 31 -75 25 -45 28 -55 15 -55 -9 0 -19 7
-22 15 -4 8 -13 15 -20 15 -8 0 -17 -7 -20 -15 -4 -8 -17 -15 -29 -15 -50 0
-39 -43 13 -53 15 -3 35 -9 45 -12 11 -5 17 -2 17 8 0 8 7 20 15 27 13 11 14
3 13 -59 0 -40 -5 -74 -9 -76 -4 -3 -15 -29 -25 -58 -22 -67 -31 -45 -10 27 9
30 16 67 16 83 l-1 28 -23 -27 c-13 -15 -27 -44 -31 -65 -3 -22 -19 -65 -36
-98 -16 -32 -26 -62 -22 -66 9 -9 90 -16 97 -8 2 2 22 51 44 109 39 101 81
318 66 341 -13 21 -34 8 -34 -21 0 -16 -4 -30 -8 -30 -15 0 -32 24 -32 45 0
20 -28 55 -43 55 -4 0 -7 -9 -7 -20z"/>
<path d="M5026 4582 c-3 -6 -1 -14 5 -17 15 -10 25 3 12 16 -7 7 -13 7 -17 1z"/>
<path d="M4920 4538 c1 -18 39 -62 47 -54 9 9 -18 58 -34 64 -7 2 -13 -2 -13
-10z"/>
<path d="M5070 4480 c-12 -8 -11 -10 8 -10 12 0 22 5 22 10 0 13 -11 13 -30 0z"/>
<path d="M5145 4459 c-4 -6 2 -17 14 -25 27 -19 27 -48 0 -66 -19 -12 -20 -17
-10 -36 6 -12 16 -22 22 -22 6 0 8 4 5 9 -8 12 35 48 67 56 34 9 31 23 -14 52
-19 13 -39 27 -46 33 -16 13 -30 13 -38 -1z"/>
<path d="M3930 4420 c0 -12 6 -36 14 -53 19 -43 39 -158 41 -232 2 -95 3 -97
28 -93 16 2 23 11 25 31 2 15 0 27 -5 27 -4 0 -9 17 -10 38 -3 42 -39 209 -57
261 -13 40 -36 53 -36 21z"/>
<path d="M4564 4426 c-28 -21 -3 -28 140 -38 142 -10 164 -18 193 -71 14 -25
18 -55 18 -137 0 -101 -1 -108 -37 -180 -70 -140 -137 -255 -176 -300 -56 -65
-89 -120 -97 -160 -3 -19 -15 -61 -26 -94 -24 -72 -34 -241 -22 -381 7 -80 6
-103 -4 -114 -11 -10 -12 -35 -7 -112 4 -62 3 -114 -4 -141 -52 -201 -61 -392
-21 -450 11 -14 19 -33 19 -42 0 -9 6 -16 13 -16 8 0 7 -4 -3 -10 -11 -7 -12
-10 -2 -10 9 0 13 -12 11 -37 -1 -21 1 -49 5 -63 4 -14 2 -65 -3 -113 -10 -99
-17 -111 -97 -163 -126 -81 -322 -131 -458 -117 -31 3 -116 0 -189 -6 -285
-27 -517 27 -827 191 -209 110 -323 206 -454 383 -33 44 -68 88 -78 98 -10 10
-18 26 -18 37 0 23 -44 48 -103 59 -38 6 -42 9 -42 36 0 23 -5 30 -20 30 -19
0 -20 -8 -23 -120 -1 -70 4 -174 14 -250 11 -86 19 -257 24 -505 l7 -375 30
-95 c17 -52 36 -120 43 -150 10 -47 25 -70 102 -160 163 -190 198 -264 184
-392 -6 -60 -10 -72 -105 -302 -33 -82 -61 -151 -61 -153 0 -2 17 -3 37 -1 34
3 38 7 49 43 6 22 37 100 68 173 75 178 94 307 61 401 -17 50 -81 157 -110
186 -11 11 -40 45 -65 75 -25 30 -54 63 -64 74 -11 10 -32 67 -48 125 -16 58
-36 129 -44 156 -8 28 -14 86 -14 130 0 44 -1 177 -2 297 -2 119 0 214 5 211
9 -5 9 21 0 31 -4 3 -8 39 -10 79 -2 39 -9 86 -14 102 -17 52 -28 178 -17 198
7 14 7 18 -2 12 -9 -5 -10 5 -4 41 8 57 11 64 28 64 19 0 76 -69 76 -92 0 -10
6 -18 13 -18 8 0 7 -3 -2 -9 -12 -8 -10 -12 12 -22 15 -7 27 -20 27 -31 0 -10
5 -18 10 -18 6 0 10 -8 11 -17 0 -11 3 -13 6 -5 9 22 33 13 33 -13 0 -14 9
-33 19 -42 11 -9 18 -20 16 -23 -2 -4 7 -13 20 -20 14 -7 25 -18 25 -23 0 -12
69 -77 81 -77 5 0 9 -4 9 -9 0 -5 25 -24 56 -42 31 -19 71 -46 89 -61 18 -16
37 -28 43 -28 6 0 12 -3 14 -7 7 -17 237 -121 328 -148 30 -9 78 -26 105 -37
84 -32 216 -41 535 -33 162 3 304 8 315 9 75 10 295 89 308 111 13 23 24 18
30 -15 7 -31 -9 -87 -30 -108 -7 -7 -13 -22 -13 -33 0 -11 -7 -22 -15 -25 -8
-4 -15 -10 -15 -16 0 -5 4 -6 10 -3 5 3 7 0 4 -9 -3 -8 -12 -12 -20 -9 -13 5
-12 9 1 30 16 23 16 25 -2 21 -10 -2 -19 -13 -21 -25 -4 -25 -58 -38 -66 -16
-7 18 -23 16 -44 -4 -20 -21 -83 -43 -207 -73 -49 -12 -107 -26 -127 -31 -51
-13 -331 -1 -503 21 -121 16 -475 131 -537 174 -12 9 -29 16 -36 16 -7 0 -20
7 -28 15 -17 16 -44 20 -44 6 0 -14 130 -89 221 -127 247 -103 529 -153 784
-139 239 12 373 37 527 95 32 12 66 20 75 18 26 -5 17 -36 -18 -65 -16 -14
-53 -62 -83 -107 -30 -45 -60 -87 -68 -94 -18 -14 -95 -208 -137 -343 -65
-206 -100 -474 -101 -756 l0 -143 35 0 35 0 0 158 c0 195 16 425 35 517 27
125 79 301 110 370 12 28 28 66 35 85 7 19 32 60 55 90 23 30 49 69 58 85 9
17 40 58 70 93 46 53 59 79 87 165 21 65 38 143 46 217 7 63 17 158 23 210 6
52 11 186 11 296 0 190 -1 203 -21 225 l-20 24 5 -50 c3 -27 8 -67 12 -88 6
-32 4 -37 -10 -31 -27 10 -56 78 -56 132 0 41 3 51 20 55 11 3 26 22 36 46 22
55 38 53 31 -4 -5 -36 -4 -45 8 -45 8 0 15 4 15 10 0 5 7 7 15 4 19 -8 19 -4
-1 68 -16 55 -16 60 1 78 17 18 16 21 -9 62 -14 24 -40 61 -56 83 -30 40 -30
42 -15 78 8 20 20 37 25 37 6 0 16 -21 23 -47 12 -46 76 -123 103 -123 6 0 24
26 39 57 15 32 40 73 56 91 31 35 35 67 9 67 -8 0 -23 -17 -33 -39 -17 -35
-19 -37 -31 -21 -9 13 -20 16 -39 11 -15 -3 -27 -11 -27 -17 0 -8 4 -8 14 0
10 8 16 9 21 1 10 -17 -5 -69 -23 -79 -17 -9 -19 -2 -22 87 0 12 -4 22 -8 22
-4 0 -14 16 -21 35 -7 19 -17 35 -22 35 -6 0 -8 -4 -4 -9 3 -5 1 -12 -4 -15
-18 -11 -24 32 -27 195 -2 129 1 178 13 220 28 97 57 151 109 203 39 39 69 86
121 191 82 164 104 227 112 315 5 55 9 65 24 62 9 -2 17 1 17 5 0 18 -114 173
-136 186 -13 8 -133 23 -239 32 -33 2 -60 -1 -71 -9z m-4 -2188 c0 -18 -2 -20
-9 -8 -6 8 -7 18 -5 22 9 14 14 9 14 -14z"/>
<path d="M5045 4380 c-9 -15 -1 -23 21 -18 15 3 16 4 1 16 -11 9 -17 10 -22 2z"/>
<path d="M4423 4329 c-31 -10 -60 -22 -66 -28 -22 -22 4 -22 67 -2 36 11 72
18 80 15 11 -4 16 0 16 13 0 24 -24 24 -97 2z"/>
<path d="M5124 4266 c-3 -9 -1 -22 5 -30 14 -17 4 -26 -31 -26 -30 0 -38 -14
-12 -24 21 -8 20 -9 47 17 25 23 30 67 10 74 -7 3 -16 -3 -19 -11z"/>
<path d="M4545 4260 c4 -6 11 -8 16 -5 14 9 11 15 -7 15 -8 0 -12 -5 -9 -10z"/>
<path d="M4254 4235 c-9 -22 12 -35 59 -35 35 0 107 23 107 34 0 3 -24 5 -52
4 -29 0 -65 3 -80 7 -22 6 -29 3 -34 -10z"/>
<path d="M4175 4225 c-4 -11 -10 -29 -15 -41 -4 -11 -4 -28 2 -38 8 -13 5 -23
-11 -40 -12 -12 -21 -32 -21 -44 0 -11 -4 -24 -10 -27 -5 -3 -10 -17 -10 -31
0 -18 4 -23 13 -17 6 4 19 8 27 8 9 0 19 16 25 42 6 23 16 48 23 55 16 16 15
35 0 41 -7 2 2 11 20 21 41 21 41 30 1 22 -29 -5 -31 -4 -25 17 3 12 1 29 -4
37 -7 12 -10 11 -15 -5z"/>
<path d="M4477 4233 c-4 -3 -7 -21 -7 -39 0 -34 35 -78 72 -90 24 -7 78 -126
78 -171 -1 -21 -7 -55 -14 -75 -16 -44 -2 -52 29 -18 36 39 9 195 -43 254 -11
12 -36 49 -57 84 -37 61 -45 69 -58 55z"/>
<path d="M2005 4220 c-5 -8 -15 -25 -23 -37 -9 -15 -10 -23 -3 -23 14 0 44 46
39 62 -3 9 -7 8 -13 -2z"/>
<path d="M2053 4203 c-3 -10 -22 -40 -42 -68 -60 -82 -102 -155 -88 -155 17 1
87 91 87 112 0 10 3 18 8 18 8 0 40 57 44 80 2 8 8 18 13 22 6 5 5 8 -3 8 -7
0 -15 -8 -19 -17z"/>
<path d="M5145 4108 c-4 -24 -7 -46 -6 -51 0 -4 -6 -40 -14 -80 -8 -39 -15
-82 -15 -94 0 -12 -16 -70 -35 -129 -33 -104 -75 -184 -95 -184 -14 0 7 -41
29 -57 14 -11 13 -12 -6 -13 -13 0 -23 -5 -23 -11 0 -18 -52 -132 -67 -149 -9
-9 -6 7 8 40 21 52 33 140 20 140 -10 0 -59 -102 -66 -137 -4 -18 -10 -33 -14
-33 -5 0 -19 -24 -32 -54 -14 -33 -32 -59 -46 -65 -34 -16 -29 -37 10 -36 27
0 32 4 35 28 2 15 7 27 12 27 15 0 18 -65 4 -87 -8 -12 -14 -32 -14 -44 0 -18
-5 -21 -31 -17 -25 4 -32 1 -39 -18 -5 -12 -14 -24 -21 -26 -7 -2 -10 -11 -6
-21 7 -20 36 -16 97 12 43 20 61 55 70 143 7 60 15 80 63 156 31 49 60 99 65
113 6 13 26 51 46 83 20 33 36 68 36 77 0 10 7 22 16 27 14 8 15 14 4 43 -12
36 1 96 19 85 12 -8 20 92 10 127 -11 38 -5 47 32 47 22 0 29 5 29 19 0 11 -4
23 -10 26 -5 3 -10 28 -10 54 0 31 -5 53 -15 61 -8 7 -15 19 -15 26 0 31 -18
11 -25 -28z"/>
<path d="M1881 4084 c0 -11 3 -14 6 -6 3 7 2 16 -1 19 -3 4 -6 -2 -5 -13z"/>
<path d="M4423 4027 l7 -77 -45 -50 c-43 -48 -53 -69 -39 -83 14 -13 45 16 69
63 14 28 32 50 40 50 24 0 25 15 6 91 -26 103 -46 106 -38 6z"/>
<path d="M5240 4081 c0 -29 11 -51 25 -51 17 0 27 28 20 51 -8 26 -45 25 -45
0z"/>
<path d="M4720 3969 c0 -47 7 -50 21 -9 16 43 16 43 -3 46 -15 2 -18 -5 -18
-37z"/>
<path d="M5220 3920 c0 -11 -5 -20 -11 -20 -7 0 -8 -11 -4 -30 4 -17 2 -36 -3
-43 -5 -7 -19 -38 -30 -70 -29 -81 -6 -69 41 22 40 80 52 161 22 161 -8 0 -15
-9 -15 -20z"/>
<path d="M4125 3898 c-10 -51 -45 -141 -61 -159 -10 -12 -11 -23 -4 -50 6 -18
10 -47 10 -64 1 -31 22 -69 33 -59 3 4 4 25 1 48 -6 41 1 73 45 227 14 49 16
70 8 78 -18 18 -25 13 -32 -21z"/>
<path d="M1864 3825 c-14 -36 43 -131 66 -109 8 8 5 21 -14 49 -14 21 -26 46
-26 56 0 23 -18 25 -26 4z"/>
<path d="M4010 3821 c0 -25 6 -27 13 -6 4 8 2 17 -3 20 -6 4 -10 -3 -10 -14z"/>
<path d="M2450 3803 c-31 -22 -42 -24 -95 -18 -115 12 -301 -35 -318 -79 -5
-12 -13 -15 -33 -10 -39 10 -26 -18 14 -30 26 -7 38 -4 76 21 46 31 81 42 194
62 66 13 82 9 82 -16 0 -20 39 -11 96 22 48 28 68 50 59 65 -10 16 -37 10 -75
-17z"/>
<path d="M3800 3775 c-7 -8 -8 -15 -2 -15 5 0 15 7 22 15 7 8 8 15 2 15 -5 0
-15 -7 -22 -15z"/>
<path d="M3926 3759 c-29 -34 -33 -49 -12 -49 8 0 16 10 20 23 3 12 18 30 33
39 26 16 26 17 6 18 -12 0 -33 -14 -47 -31z"/>
<path d="M4232 3668 c-18 -18 -15 -36 13 -85 28 -48 62 -69 124 -79 44 -7 119
15 141 42 16 18 3 18 -50 -1 -23 -8 -64 -15 -89 -15 -39 0 -53 5 -79 31 -26
26 -32 39 -32 75 0 45 -7 53 -28 32z"/>
<path d="M1904 3643 c8 -44 18 -73 25 -73 3 0 14 12 24 26 20 26 19 61 -1 56
-7 -1 -22 3 -33 9 -19 10 -20 8 -15 -18z"/>
<path d="M2076 3586 c-24 -45 -15 -96 18 -96 13 0 26 3 29 7 9 9 -23 44 -34
37 -5 -3 -9 -1 -9 5 0 5 9 13 20 16 14 4 20 15 20 36 0 39 -21 37 -44 -5z"/>
<path d="M4561 3591 c-17 -11 -5 -32 14 -25 18 7 28 34 12 34 -7 0 -18 -4 -26
-9z"/>
<path d="M1973 3557 c-18 -12 -35 -30 -38 -40 -4 -9 3 -61 15 -115 12 -53 23
-107 26 -119 6 -34 17 -28 44 23 l25 45 5 -33 c5 -30 9 -34 53 -42 56 -10 128
2 135 23 3 10 -5 12 -39 9 -24 -3 -60 0 -81 6 -31 9 -37 15 -42 48 -6 34 -10
38 -34 38 -31 0 -72 36 -72 62 0 9 9 22 20 29 21 14 41 90 24 88 -5 0 -23 -11
-41 -22z m57 -199 c0 -4 -4 -8 -9 -8 -6 0 -12 4 -15 8 -3 5 1 9 9 9 8 0 15 -4
15 -9z"/>
<path d="M2294 3505 c-14 -26 -16 -37 -7 -46 21 -21 44 8 37 44 -7 42 -8 42
-30 2z"/>
<path d="M4086 3469 c-6 -71 -2 -94 15 -84 11 8 12 142 0 149 -4 3 -11 -26
-15 -65z"/>
<path d="M2365 3486 c-29 -49 -30 -56 -11 -56 14 0 86 74 86 88 0 4 -11 9 -25
10 -19 1 -30 -7 -50 -42z"/>
<path d="M2497 3519 c-21 -12 -22 -32 -1 -50 20 -17 61 -18 61 -2 0 7 -4 13
-9 13 -4 0 -8 6 -8 14 0 22 -23 36 -43 25z"/>
<path d="M2153 3513 c-17 -6 -16 -33 1 -33 17 0 38 24 29 33 -7 8 -12 8 -30 0z"/>
<path d="M2203 3505 c-3 -9 -3 -19 1 -22 8 -9 37 18 30 28 -8 14 -24 11 -31
-6z"/>
<path d="M3890 3490 c0 -24 15 -27 24 -4 9 22 8 24 -9 24 -8 0 -15 -9 -15 -20z"/>
<path d="M2663 3493 c-18 -7 -16 -28 3 -48 15 -15 18 -15 37 2 12 11 21 14 24
7 2 -6 10 -20 18 -30 20 -28 31 -9 11 21 -9 14 -14 25 -10 25 4 0 1 7 -6 15
-12 14 -52 19 -77 8z"/>
<path d="M3756 3465 c-9 -13 -16 -27 -16 -30 0 -4 -16 -34 -35 -66 -43 -74
-47 -104 -9 -68 42 38 85 107 91 143 7 42 -10 54 -31 21z"/>
<path d="M2785 3448 c4 -18 14 -40 22 -49 12 -15 11 -18 -17 -28 -21 -7 -38
-7 -50 -1 -19 10 -31 1 -43 -33 -5 -14 -15 -17 -39 -15 -29 3 -33 6 -31 31 1
21 -3 27 -18 27 -12 0 -19 7 -19 19 0 28 -17 35 -25 11 -6 -18 -13 -19 -63
-15 -91 9 -402 11 -402 3 0 -23 54 -33 187 -34 96 0 147 -5 157 -13 10 -8 16
-9 21 -1 8 13 115 13 115 0 0 -16 -38 -50 -55 -50 -9 0 -29 7 -45 15 -26 13
-30 13 -52 -4 l-23 -19 27 -7 c16 -4 79 -5 140 -2 96 4 124 9 188 35 l75 30
18 -24 c10 -13 25 -24 34 -24 12 0 13 11 8 68 -9 83 -16 99 -34 78 -12 -14
-15 -13 -33 9 -29 37 -51 33 -43 -7z"/>
<path d="M3570 3449 c0 -5 5 -7 10 -4 6 3 10 8 10 11 0 2 -4 4 -10 4 -5 0 -10
-5 -10 -11z"/>
<path d="M4000 3425 c0 -8 5 -15 10 -15 6 0 10 7 10 15 0 8 -4 15 -10 15 -5 0
-10 -7 -10 -15z"/>
<path d="M3630 3398 c-22 -36 -25 -48 -11 -48 13 0 51 50 51 66 0 24 -20 15
-40 -18z"/>
<path d="M3882 3383 c-5 -10 -7 -24 -5 -31 7 -18 33 5 33 29 0 24 -16 25 -28
2z"/>
<path d="M3465 3360 c-16 -16 -39 -30 -51 -30 -47 0 -114 -142 -114 -240 0
-46 16 -44 44 5 15 25 31 45 36 45 6 0 10 7 10 15 0 8 -6 15 -14 15 -45 0 -1
99 57 128 29 14 70 67 65 83 -2 5 -16 -4 -33 -21z"/>
<path d="M3385 3360 c-3 -5 -1 -10 4 -10 6 0 11 5 11 10 0 6 -2 10 -4 10 -3 0
-8 -4 -11 -10z"/>
<path d="M3550 3348 c-27 -28 -53 -78 -46 -85 7 -7 41 32 62 70 20 37 12 45
-16 15z"/>
<path d="M4080 3358 c0 -7 -3 -23 -6 -35 -5 -17 -2 -23 9 -23 18 0 27 21 20
49 -6 23 -23 29 -23 9z"/>
<path d="M3060 3340 c-10 -6 -12 -12 -4 -20 7 -7 16 -5 29 10 14 15 15 20 4
20 -8 0 -21 -5 -29 -10z"/>
<path d="M3190 3330 c-6 -11 -8 -25 -5 -30 3 -6 -1 -20 -9 -32 -18 -25 -20
-38 -8 -38 9 0 52 89 52 108 0 19 -18 14 -30 -8z"/>
<path d="M3610 3311 c-22 -23 -43 -54 -46 -69 -4 -15 -16 -39 -26 -54 -26 -37
-29 -81 -5 -86 11 -2 17 3 17 13 0 38 36 124 72 173 49 66 42 80 -12 23z"/>
<path d="M2316 3304 c-3 -9 -6 -18 -6 -20 0 -8 35 -4 50 6 13 9 13 11 0 20
-22 14 -37 12 -44 -6z"/>
<path d="M3258 3304 c-5 -4 -8 -19 -8 -33 1 -23 2 -24 11 -8 11 19 9 53 -3 41z"/>
<path d="M3430 3186 c0 -9 7 -16 16 -16 9 0 14 5 12 12 -6 18 -28 21 -28 4z"/>
<path d="M3744 3165 c-13 -27 -9 -36 12 -28 14 5 20 53 7 53 -5 0 -13 -11 -19
-25z"/>
<path d="M3167 3154 c-11 -11 -8 -49 5 -62 21 -21 29 -13 26 25 -3 35 -17 51
-31 37z"/>
<path d="M4047 3143 c-3 -5 -16 -36 -28 -68 -17 -45 -36 -73 -83 -116 -43 -41
-64 -55 -72 -48 -12 10 -13 7 -30 -53 -7 -23 19 -24 37 -2 8 9 33 25 56 35 36
15 46 27 77 93 20 41 36 82 36 90 0 8 7 22 16 30 10 11 12 21 6 32 -5 9 -12
12 -15 7z"/>
<path d="M2030 3094 c0 -47 13 -55 34 -22 7 12 6 24 -4 42 -20 38 -30 32 -30
-20z"/>
<path d="M2111 3091 c-8 -5 -11 -16 -8 -25 8 -21 54 -31 72 -16 19 16 20 41 1
34 -8 -3 -17 -1 -21 5 -8 13 -25 14 -44 2z"/>
<path d="M3221 3061 c-15 -28 -14 -61 3 -61 15 0 26 21 26 50 0 27 -17 34 -29
11z"/>
<path d="M3466 3071 c-4 -7 -5 -15 -2 -18 9 -9 19 4 14 18 -4 11 -6 11 -12 0z"/>
<path d="M3540 3053 c0 -15 4 -34 9 -42 8 -12 12 -13 26 -1 24 20 16 64 -12
68 -19 3 -23 -1 -23 -25z"/>
<path d="M3676 3031 c-10 -11 -15 -25 -11 -31 5 -8 12 -5 22 10 20 29 12 46
-11 21z"/>
<path d="M3318 3024 c-5 -4 -8 -16 -8 -28 0 -14 3 -17 11 -9 6 6 9 19 7 28 -1
9 -6 13 -10 9z"/>
<path d="M3116 2992 c-3 -6 -1 -14 5 -17 15 -10 25 3 12 16 -7 7 -13 7 -17 1z"/>
<path d="M1961 2964 c0 -11 3 -14 6 -6 3 7 2 16 -1 19 -3 4 -6 -2 -5 -13z"/>
<path d="M3447 2970 c-14 -42 -14 -60 -2 -60 16 0 27 39 15 59 -8 14 -9 14
-13 1z"/>
<path d="M3848 2960 c-7 -24 -3 -38 8 -28 3 4 4 17 2 30 l-3 23 -7 -25z"/>
<path d="M3167 2953 c-4 -3 -7 -20 -7 -36 0 -25 2 -28 15 -17 8 7 15 23 15 36
0 23 -10 31 -23 17z"/>
<path d="M3808 2933 c7 -3 16 -2 19 1 4 3 -2 6 -13 5 -11 0 -14 -3 -6 -6z"/>
<path d="M1945 2896 c-3 -9 -7 -23 -10 -31 -2 -8 0 -17 4 -20 5 -2 11 9 15 27
7 33 0 52 -9 24z"/>
<path d="M2700 2890 c0 -5 5 -10 10 -10 6 0 10 5 10 10 0 6 -4 10 -10 10 -5 0
-10 -4 -10 -10z"/>
<path d="M2776 2884 c-8 -22 -7 -34 3 -34 12 0 21 39 11 45 -4 3 -11 -2 -14
-11z"/>
<path d="M3382 2873 c-23 -28 -29 -63 -12 -63 5 0 17 17 26 38 10 20 19 40 21
45 10 18 -16 4 -35 -20z"/>
<path d="M3195 2880 c-3 -5 -4 -14 0 -20 8 -13 35 -1 35 16 0 16 -26 19 -35 4z"/>
<path d="M3003 2855 c-8 -22 6 -33 17 -15 13 20 12 30 0 30 -6 0 -13 -7 -17
-15z"/>
<path d="M3173 2843 c-19 -7 -17 -63 2 -63 9 0 18 6 21 13 7 20 -9 55 -23 50z"/>
<path d="M2855 2820 c-9 -15 4 -80 15 -80 13 0 13 77 1 85 -5 3 -13 0 -16 -5z"/>
<path d="M2610 2795 c-19 -14 -40 -25 -48 -25 -7 0 -21 -15 -32 -33 -10 -18
-33 -40 -49 -50 -38 -22 -57 -55 -42 -70 7 -7 19 -1 40 21 33 37 47 41 31 11
-14 -24 -7 -34 15 -25 11 4 14 12 10 26 -4 12 -2 26 3 33 5 7 13 27 17 45 5
25 12 32 30 32 22 0 75 38 75 54 0 11 -14 5 -50 -19z"/>
<path d="M3850 2810 c0 -5 5 -10 10 -10 6 0 10 5 10 10 0 6 -4 10 -10 10 -5 0
-10 -4 -10 -10z"/>
<path d="M2757 2804 c-4 -4 -7 -18 -7 -31 0 -16 -4 -22 -12 -17 -7 4 -8 3 -4
-4 4 -6 -5 -19 -19 -28 -28 -18 -34 -54 -10 -54 23 0 66 51 63 74 -1 12 1 27
6 34 9 15 -6 37 -17 26z"/>
<path d="M3805 2800 c-3 -5 -1 -10 4 -10 6 0 11 5 11 10 0 6 -2 10 -4 10 -3 0
-8 -4 -11 -10z"/>
<path d="M3027 2773 c-3 -15 -1 -36 5 -46 7 -15 5 -24 -11 -41 -21 -23 -28
-46 -13 -46 5 0 21 14 37 30 16 17 35 30 42 30 7 0 13 9 13 20 0 11 -5 20 -11
20 -6 0 -8 9 -4 20 5 15 0 22 -20 30 -34 13 -32 14 -38 -17z"/>
<path d="M3674 2734 c3 -9 6 -19 6 -22 0 -9 20 21 20 31 0 4 -7 7 -16 7 -11 0
-14 -5 -10 -16z"/>
<path d="M3760 2725 c-7 -8 -9 -22 -6 -31 5 -14 8 -14 21 0 16 16 20 46 6 46
-5 0 -14 -7 -21 -15z"/>
<path d="M2926 2715 c-3 -9 0 -15 9 -15 16 0 20 16 6 24 -5 3 -11 -1 -15 -9z"/>
<path d="M2565 2710 c-3 -5 -1 -10 4 -10 6 0 11 5 11 10 0 6 -2 10 -4 10 -3 0
-8 -4 -11 -10z"/>
<path d="M2840 2704 c0 -9 5 -14 12 -12 18 6 21 28 4 28 -9 0 -16 -7 -16 -16z"/>
<path d="M1930 2695 c0 -8 -5 -24 -12 -35 -14 -22 1 -57 39 -94 13 -11 23 -27
23 -35 0 -10 8 -12 30 -7 17 3 30 1 30 -4 0 -6 -4 -10 -10 -10 -5 0 -10 -4
-10 -10 0 -5 8 -10 18 -10 10 0 26 -6 37 -14 32 -21 76 -26 101 -9 12 8 30 13
39 11 24 -4 78 107 67 140 -6 18 -18 15 -47 -12 -22 -21 -25 -28 -15 -45 8
-17 8 -19 -4 -15 -8 3 -17 1 -21 -5 -11 -19 -61 -12 -87 12 -18 17 -34 23 -54
20 -25 -3 -35 3 -66 43 -21 26 -38 57 -38 70 0 13 -4 24 -10 24 -5 0 -10 -7
-10 -15z"/>
<path d="M2613 2656 c-26 -27 -49 -74 -40 -82 8 -9 77 46 77 61 0 8 3 20 6 29
9 24 -18 19 -43 -8z"/>
<path d="M3847 2663 c-34 -4 -36 -6 -26 -24 8 -17 7 -23 -8 -34 -10 -7 -15
-16 -11 -20 3 -4 15 2 27 14 11 11 34 27 50 36 31 15 42 37 19 33 -7 -1 -30
-3 -51 -5z"/>
<path d="M2000 2644 c0 -8 5 -12 10 -9 6 3 10 10 10 16 0 5 -4 9 -10 9 -5 0
-10 -7 -10 -16z"/>
<path d="M1810 2635 c-10 -12 -10 -15 3 -15 8 0 17 7 21 15 3 8 2 15 -3 15 -5
0 -14 -7 -21 -15z"/>
<path d="M2355 2640 c-3 -6 -4 -14 -1 -19 8 -12 56 -1 56 13 0 14 -47 19 -55
6z"/>
<path d="M2810 2630 c-12 -8 -9 -10 13 -10 16 0 26 4 22 10 -8 12 -16 12 -35
0z"/>
<path d="M3250 2620 c-13 -8 -13 -10 2 -10 9 0 20 5 23 10 8 13 -5 13 -25 0z"/>
<path d="M2885 2609 c-10 -15 1 -22 24 -14 12 3 19 11 16 16 -8 12 -32 11 -40
-2z"/>
<path d="M3695 2600 c-3 -11 -13 -20 -21 -20 -8 0 -14 -4 -14 -9 0 -5 -12 -14
-27 -19 l-28 -10 29 -7 c23 -6 33 -4 45 11 9 11 24 23 34 27 20 8 23 47 3 47
-8 0 -18 -9 -21 -20z"/>
<path d="M1790 2599 c0 -6 -14 -24 -32 -39 -28 -25 -57 -33 -243 -69 -115 -23
-244 -46 -285 -51 -72 -10 -247 -38 -375 -61 -59 -10 -140 -30 -360 -91 -109
-29 -211 -73 -276 -118 -57 -39 -219 -203 -219 -222 0 -10 3 -18 7 -18 4 0 53
47 108 104 92 95 109 107 205 154 97 47 201 80 444 138 54 13 270 52 501 90
194 32 446 84 474 98 16 9 38 31 50 51 24 41 25 45 11 45 -5 0 -10 -5 -10 -11z"/>
<path d="M3120 2600 c0 -5 5 -10 11 -10 5 0 7 5 4 10 -3 6 -8 10 -11 10 -2 0
-4 -4 -4 -10z"/>
<path d="M3755 2560 c-14 -16 -15 -20 -4 -20 16 0 39 19 39 32 0 14 -16 9 -35
-12z"/>
<path d="M2295 2560 c3 -5 21 -10 40 -10 19 0 37 5 40 10 4 6 -12 10 -40 10
-28 0 -44 -4 -40 -10z"/>
<path d="M2452 2550 c-7 -11 -19 -20 -27 -20 -8 0 -15 -4 -15 -10 0 -14 23
-12 56 5 16 8 39 15 50 15 12 0 24 7 28 15 9 25 -76 20 -92 -5z"/>
<path d="M2702 2558 c7 -19 38 -22 38 -4 0 10 -9 16 -21 16 -12 0 -19 -5 -17
-12z"/>
<path d="M3321 2524 c0 -11 3 -14 6 -6 3 7 2 16 -1 19 -3 4 -6 -2 -5 -13z"/>
<path d="M2605 2510 c-9 -15 4 -30 26 -30 24 0 24 12 -1 27 -12 8 -21 9 -25 3z"/>
<path d="M2893 2512 c-7 -4 -9 -13 -4 -21 10 -16 31 -6 31 15 0 16 -9 18 -27
6z"/>
<path d="M3273 2482 c4 -6 -13 -15 -43 -23 -50 -13 -58 -22 -40 -49 8 -12 13
-13 30 -2 11 6 28 12 39 12 21 0 71 36 71 51 0 6 -8 9 -17 7 -10 -1 -24 1 -32
6 -9 6 -12 5 -8 -2z"/>
<path d="M2464 2471 c-10 -10 21 -31 46 -31 35 0 88 -18 123 -42 20 -14 27
-28 27 -51 0 -41 14 -62 34 -54 11 5 16 19 16 49 0 32 5 46 19 55 16 10 20 9
24 -9 5 -17 11 -19 40 -14 26 5 38 2 52 -14 10 -11 26 -20 35 -20 10 0 20 -7
24 -15 10 -26 106 -17 106 10 0 19 -28 27 -51 15 -15 -8 -19 -7 -19 5 0 8 -6
15 -14 15 -7 0 -19 7 -26 15 -8 10 -21 13 -38 8 -16 -4 -23 -2 -19 4 9 14 -26
23 -90 23 -31 0 -54 5 -57 13 -5 9 -7 9 -12 0 -4 -9 -11 -9 -29 -1 -14 6 -22
15 -19 19 3 5 -2 9 -10 9 -9 0 -16 3 -16 8 0 7 -138 11 -146 3z"/>
<path d="M3570 2466 c0 -9 5 -16 10 -16 6 0 10 4 10 9 0 6 -4 13 -10 16 -5 3
-10 -1 -10 -9z"/>
<path d="M3680 2455 c-10 -12 -10 -19 -2 -27 15 -15 48 14 38 31 -10 15 -21
14 -36 -4z"/>
<path d="M2728 2443 c6 -2 18 -2 25 0 6 3 1 5 -13 5 -14 0 -19 -2 -12 -5z"/>
<path d="M3445 2437 c-11 -7 -26 -20 -33 -29 -7 -10 -26 -18 -43 -18 -16 0
-29 -4 -29 -10 0 -5 -16 -16 -35 -24 -19 -8 -35 -22 -35 -30 0 -8 -12 -27 -27
-41 -25 -22 -26 -25 -8 -25 25 0 40 10 48 33 4 11 17 17 40 17 19 0 46 9 60
20 17 13 28 17 32 10 11 -18 35 10 35 41 0 22 5 29 19 29 30 0 51 11 51 26 0
17 -47 18 -75 1z"/>
<path d="M3556 2408 c-47 -60 -76 -102 -76 -110 0 -21 31 -2 84 51 51 51 57
62 46 75 -18 22 -24 20 -54 -16z"/>
<path d="M4860 2430 c0 -25 53 -60 90 -60 21 0 51 -7 66 -15 33 -17 60 -19 69
-6 6 11 -15 19 -60 25 -55 6 -112 26 -139 47 -14 11 -26 15 -26 9z"/>
<path d="M3025 2420 c3 -5 -1 -10 -9 -10 -9 0 -16 -3 -16 -7 1 -20 20 -32 78
-48 50 -14 68 -15 88 -6 31 14 22 31 -16 31 -16 0 -32 5 -35 10 -4 6 -14 10
-23 9 -36 -3 -52 2 -52 16 0 8 -5 15 -11 15 -5 0 -7 -4 -4 -10z"/>
<path d="M3106 2422 c-3 -6 -1 -14 5 -17 14 -9 20 -2 10 14 -6 8 -11 9 -15 3z"/>
<path d="M2164 2325 c-4 -14 -3 -29 0 -33 9 -8 26 18 26 41 0 26 -19 20 -26
-8z"/>
<path d="M5105 2340 c3 -5 13 -10 21 -10 8 0 14 5 14 10 0 6 -9 10 -21 10 -11
0 -17 -4 -14 -10z"/>
<path d="M2035 2320 c-3 -5 -1 -10 4 -10 6 0 11 5 11 10 0 6 -2 10 -4 10 -3 0
-8 -4 -11 -10z"/>
<path d="M5220 2322 c25 -15 70 -23 70 -12 0 5 -11 10 -24 10 -13 0 -33 3 -43
6 -14 4 -15 4 -3 -4z"/>
<path d="M2328 2313 c7 -3 16 -2 19 1 4 3 -2 6 -13 5 -11 0 -14 -3 -6 -6z"/>
<path d="M5300 2299 c0 -8 61 -31 68 -25 2 3 1 9 -2 14 -7 12 -66 22 -66 11z"/>
<path d="M3050 2290 c-11 -7 -4 -10 28 -10 23 0 42 5 42 10 0 13 -50 13 -70 0z"/>
<path d="M5380 2281 c0 -11 78 -30 98 -23 20 7 10 11 -38 17 -23 3 -47 8 -51
11 -5 3 -9 1 -9 -5z"/>
<path d="M1347 2264 c-4 -4 -123 -8 -264 -9 l-258 -2 -172 -41 c-94 -23 -193
-49 -220 -58 -75 -26 -183 -76 -183 -85 0 -14 9 -12 117 25 54 19 184 56 289
82 l189 47 255 8 c258 8 314 14 304 30 -6 10 -48 12 -57 3z"/>
<path d="M1470 2260 c0 -13 40 -13 60 0 11 7 5 10 -22 10 -21 0 -38 -4 -38
-10z"/>
<path d="M1428 2253 c6 -2 18 -2 25 0 6 3 1 5 -13 5 -14 0 -19 -2 -12 -5z"/>
<path d="M2190 2246 c0 -8 5 -18 10 -21 6 -3 10 3 10 14 0 12 -4 21 -10 21 -5
0 -10 -6 -10 -14z"/>
<path d="M4925 2240 c-10 -17 4 -29 43 -35 20 -4 62 -15 93 -26 58 -21 166
-23 162 -4 -1 6 -28 13 -60 17 -32 4 -96 18 -142 32 -98 30 -88 29 -96 16z"/>
<path d="M5753 2197 c4 -14 26 -16 30 -3 1 5 -6 10 -16 12 -10 1 -16 -3 -14
-9z"/>
<path d="M5305 2180 c-14 -6 3 -9 53 -9 46 -1 71 3 67 9 -7 12 -92 12 -120 0z"/>
<path d="M5440 2181 c0 -4 19 -8 42 -10 23 -1 40 0 38 2 -10 8 -80 16 -80 8z"/>
<path d="M5248 2173 c7 -3 16 -2 19 1 4 3 -2 6 -13 5 -11 0 -14 -3 -6 -6z"/>
<path d="M5795 2170 c3 -5 13 -10 21 -10 25 0 114 -49 178 -99 33 -26 131 -92
216 -146 85 -54 167 -106 182 -116 15 -11 31 -19 36 -19 5 0 26 -16 48 -35 21
-19 53 -42 71 -50 17 -8 42 -28 56 -45 14 -16 28 -26 31 -23 3 4 6 -1 6 -10 0
-10 4 -17 9 -17 5 0 12 -11 15 -25 4 -14 10 -25 15 -25 4 0 3 17 -3 37 -13 42
-64 96 -148 155 -32 23 -58 45 -58 49 0 5 -4 9 -10 9 -8 0 -234 143 -330 209
-140 97 -187 124 -244 146 -70 26 -101 32 -91 15z"/>
<path d="M2161 2084 c0 -11 3 -14 6 -6 3 7 2 16 -1 19 -3 4 -6 -2 -5 -13z"/>
<path d="M5805 2080 c3 -5 10 -10 16 -10 5 0 9 5 9 10 0 6 -7 10 -16 10 -8 0
-12 -4 -9 -10z"/>
<path d="M35 1880 c-9 -14 4 -52 16 -45 12 8 12 55 0 55 -6 0 -13 -5 -16 -10z"/>
<path d="M2110 1830 c-8 -26 -7 -41 2 -32 6 6 8 16 5 24 -3 7 -6 11 -7 8z"/>
<path d="M4024 1803 c-3 -10 -10 -26 -15 -36 -6 -11 -8 -21 -6 -24 7 -7 47 39
47 53 0 21 -20 26 -26 7z"/>
<path d="M2080 1770 c0 -5 5 -10 10 -10 6 0 10 5 10 10 0 6 -4 10 -10 10 -5 0
-10 -4 -10 -10z"/>
<path d="M4960 1746 c0 -9 5 -16 10 -16 6 0 10 4 10 9 0 6 -4 13 -10 16 -5 3
-10 -1 -10 -9z"/>
<path d="M2795 1670 c3 -5 8 -10 11 -10 2 0 4 5 4 10 0 6 -5 10 -11 10 -5 0
-7 -4 -4 -10z"/>
<path d="M4725 1670 c3 -5 10 -10 16 -10 5 0 9 5 9 10 0 6 -7 10 -16 10 -8 0
-12 -4 -9 -10z"/>
<path d="M6 1629 c-3 -17 -5 -61 -5 -98 l2 -66 8 70 c4 39 10 82 13 98 3 15 2
27 -3 27 -5 0 -11 -14 -15 -31z"/>
<path d="M4940 1573 c0 -124 -58 -213 -179 -277 -75 -39 -94 -56 -63 -56 35 0
102 29 158 67 51 36 56 43 77 110 17 56 26 73 41 73 13 0 17 5 13 19 -6 26 8
45 27 38 26 -10 37 -54 45 -172 11 -169 62 -277 156 -334 78 -47 318 -92 346
-64 23 23 -3 33 -84 33 -140 0 -252 45 -306 124 -38 55 -48 95 -60 254 -15
182 -35 219 -135 237 l-36 7 0 -59z"/>
<path d="M2061 1573 c-44 -9 -130 -64 -167 -106 -20 -23 -92 -127 -162 -232
-96 -145 -146 -211 -214 -277 -48 -49 -95 -88 -103 -88 -8 0 -15 -5 -15 -11 0
-5 -4 -7 -10 -4 -11 7 -90 -32 -90 -45 0 -19 67 -22 103 -5 48 22 164 121 212
181 22 27 43 51 47 52 5 2 8 8 8 14 0 6 13 27 29 47 16 20 52 77 81 127 28 51
65 104 80 119 l29 28 5 -24 c3 -13 7 -39 8 -58 2 -19 9 -37 17 -39 12 -4 13
12 8 99 -7 119 -11 112 88 156 82 36 92 33 126 -44 47 -105 52 -113 61 -113
12 0 10 15 -13 91 -35 116 -63 145 -128 132z"/>
<path d="M6685 1499 c5 -13 11 -39 16 -57 8 -36 16 -49 25 -40 9 10 -20 111
-35 116 -10 3 -11 -2 -6 -19z"/>
<path d="M4760 1473 c0 -13 5 -23 10 -23 13 0 13 11 0 30 -8 12 -10 11 -10 -7z"/>
<path d="M1476 1344 c-4 -9 -4 -19 -1 -22 2 -3 7 3 11 12 4 9 4 19 1 22 -2 3
-7 -3 -11 -12z"/>
<path d="M2187 1303 c-10 -58 12 -160 35 -166 16 -5 18 2 18 55 0 116 -39 198
-53 111z"/>
<path d="M4500 1242 c-14 -11 -37 -22 -51 -25 -27 -7 -119 -82 -119 -98 0 -21
32 -6 80 36 28 25 55 45 60 45 6 0 10 -13 10 -30 0 -16 5 -30 10 -30 6 0 10 8
10 18 0 31 31 50 105 63 l70 13 -45 8 c-25 4 -58 10 -75 13 -21 4 -38 -1 -55
-13z"/>
<path d="M5450 1188 c0 -21 73 -102 87 -97 6 2 -11 28 -38 58 -28 31 -49 48
-49 39z"/>
<path d="M1933 1145 c0 -22 2 -30 4 -17 2 12 2 30 0 40 -3 9 -5 -1 -4 -23z"/>
<path d="M4606 1148 c-19 -27 -20 -51 -4 -81 28 -54 79 -63 103 -17 22 43 19
76 -11 99 -35 27 -69 27 -88 -1z m79 -84 c-21 -15 -37 -15 -36 1 0 10 42 25
51 18 3 -3 -4 -11 -15 -19z"/>
<path d="M6760 1105 c0 -16 9 -55 21 -85 12 -30 27 -82 34 -115 40 -176 66
-257 90 -281 21 -22 19 -7 -14 98 -17 51 -35 122 -41 156 -14 79 -44 176 -70
222 l-19 35 -1 -30z"/>
<path d="M5370 1090 c0 -6 7 -10 15 -10 8 0 15 2 15 4 0 2 -7 6 -15 10 -8 3
-15 1 -15 -4z"/>
<path d="M1949 1051 c-27 -27 -43 -91 -19 -76 6 3 10 15 10 25 0 10 4 21 8 24
4 2 8 -8 7 -22 0 -23 4 -27 28 -27 45 1 32 -24 -15 -27 -41 -3 -42 -3 -20 -16
32 -19 64 -9 85 27 25 42 22 76 -9 100 -35 27 -40 27 -75 -8z m71 -21 c0 -5
-4 -10 -9 -10 -6 0 -13 5 -16 10 -3 6 1 10 9 10 9 0 16 -4 16 -10z"/>
<path d="M6706 965 c4 -33 11 -64 17 -70 6 -7 7 8 3 44 -10 79 -27 101 -20 26z"/>
<path d="M1940 851 c0 -83 21 -302 31 -325 10 -22 4 201 -8 316 -7 71 -23 77
-23 9z"/>
<path d="M6724 819 c11 -100 18 -139 25 -134 4 2 3 35 -2 72 -5 37 -9 76 -9
85 1 10 -4 20 -9 24 -7 4 -9 -12 -5 -47z"/>
<path d="M2356 841 c-4 -7 -5 -15 -2 -18 9 -9 19 4 14 18 -4 11 -6 11 -12 0z"/>
<path d="M2488 713 c7 -3 16 -2 19 1 4 3 -2 6 -13 5 -11 0 -14 -3 -6 -6z"/>
<path d="M6866 531 c-5 -7 -4 -45 3 -85 6 -39 18 -120 26 -180 9 -61 17 -112
19 -114 6 -6 18 37 13 45 -3 5 -10 60 -17 123 -14 142 -32 230 -44 211z"/>
<path d="M4270 490 c0 -11 5 -20 10 -20 6 0 10 9 10 20 0 11 -4 20 -10 20 -5
0 -10 -9 -10 -20z"/>
<path d="M4264 369 c8 -59 15 -75 26 -62 12 13 -4 106 -19 111 -11 4 -13 -5
-7 -49z"/>
<path d="M6761 368 c1 -18 5 -44 9 -58 6 -20 8 -14 9 27 1 28 -3 55 -9 58 -6
4 -10 -7 -9 -27z"/>
<path d="M1984 223 c7 -153 16 -223 28 -223 6 0 8 19 4 48 -9 72 -20 245 -17
264 1 9 -3 19 -9 23 -8 5 -9 -28 -6 -112z"/>
<path d="M5977 333 c-16 -4 -18 -11 -12 -56 12 -87 19 -98 57 -90 18 3 35 7
37 9 8 7 -12 24 -30 24 -23 0 -26 18 -4 26 22 9 18 21 -7 29 -23 7 -23 7 5 18
57 23 19 57 -46 40z"/>
<path d="M6074 327 c-3 -10 -4 -44 0 -75 8 -64 26 -95 26 -44 0 40 15 41 29 2
5 -16 17 -30 25 -30 13 0 16 13 16 70 0 56 -3 70 -15 70 -9 0 -15 -9 -15 -22
-1 -21 -3 -20 -30 12 -25 31 -30 33 -36 17z"/>
<path d="M5637 314 c-7 -21 6 -130 16 -141 28 -28 30 106 2 144 -12 15 -13 15
-18 -3z"/>
<path d="M5787 324 c-4 -4 -5 -16 -2 -28 2 -12 7 -42 10 -68 6 -50 23 -63 32
-28 5 19 7 20 24 4 22 -20 39 -11 39 22 0 14 4 22 10 19 6 -3 10 -15 10 -26 0
-19 25 -37 36 -26 4 3 0 34 -8 69 -11 53 -17 64 -36 66 -16 3 -22 -2 -22 -16
0 -27 -10 -52 -21 -52 -5 0 -15 16 -23 35 -14 32 -34 44 -49 29z"/>
<path d="M6196 315 c-22 -22 -20 -32 9 -61 30 -30 31 -40 4 -47 -31 -8 -13
-27 26 -27 29 0 36 4 41 27 6 21 2 31 -19 49 -32 28 -33 30 -6 37 12 3 19 12
17 19 -7 19 -53 21 -72 3z"/>
<path d="M5694 253 c7 -72 16 -85 55 -81 34 4 38 26 5 34 l-27 7 24 18 24 19
-22 6 c-29 8 -29 20 -2 27 33 9 16 32 -26 35 l-38 3 7 -68z"/>
<path d="M4295 251 c-3 -5 -1 -12 5 -16 5 -3 10 1 10 9 0 18 -6 21 -15 7z"/>
<path d="M2194 200 c-53 -21 -83 -109 -51 -151 28 -37 96 -51 138 -29 22 12
49 61 49 89 0 70 -71 118 -136 91z m36 -18 c0 -5 6 -17 14 -27 11 -16 17 -17
29 -7 10 9 17 10 22 2 11 -18 -5 -29 -35 -23 -22 4 -30 2 -30 -8 0 -9 -3 -10
-8 -3 -4 6 -15 13 -24 17 -22 8 -23 21 -2 41 17 17 34 21 34 8z m-39 -103 c16
-31 -4 -47 -24 -18 -16 22 -14 39 3 39 5 0 14 -9 21 -21z m92 -6 c4 -3 2 -12
-4 -19 -9 -11 -16 -11 -32 -2 -21 11 -21 11 -2 19 26 10 30 10 38 2z"/>
<path d="M5626 133 c-3 -7 -2 -14 2 -17 4 -2 150 -3 324 -2 240 1 319 4 322
13 3 7 0 15 -5 19 -6 3 -152 5 -325 3 -235 -3 -315 -7 -318 -16z"/>
<path d="M5990 101 c0 -13 -79 -50 -86 -40 -3 5 -16 9 -30 9 -22 0 -25 -4 -22
-32 3 -32 28 -53 28 -24 0 9 5 16 10 16 6 0 10 -7 10 -15 0 -10 11 -15 35 -15
19 0 35 5 35 10 0 6 -4 10 -10 10 -5 0 -10 5 -10 10 0 6 11 10 25 10 18 0 25
-5 25 -20 0 -11 5 -20 10 -20 6 0 10 9 10 20 0 11 5 20 10 20 6 0 10 -9 10
-20 0 -13 7 -20 20 -20 13 0 20 7 20 20 0 11 5 20 10 20 6 0 10 -9 10 -20 0
-11 7 -20 15 -20 10 0 15 10 15 34 0 27 -5 35 -24 40 -14 3 -32 3 -41 0 -10
-4 -29 2 -46 15 -16 12 -29 17 -29 12z"/>
<path d="M5630 81 c-5 -11 -10 -34 -10 -51 l0 -31 68 3 c60 3 68 5 64 20 -6
25 14 22 32 -4 13 -18 16 -19 16 -5 0 9 5 17 10 17 6 0 10 -7 10 -15 0 -8 5
-15 10 -15 12 0 13 59 2 77 -11 18 -108 -13 -127 -40 -8 -11 -18 -17 -22 -13
-5 5 -2 11 5 13 17 7 15 23 -4 23 -9 0 -18 9 -21 20 -7 25 -19 26 -33 1z"/>
<path d="M6162 56 c-24 -12 -24 -31 1 -31 8 0 19 -4 23 -8 15 -15 24 -6 24 23
0 32 -10 35 -48 16z"/>
<path d="M6237 63 c-4 -3 -7 -19 -7 -35 0 -21 5 -28 19 -28 26 0 44 25 36 50
-6 19 -34 27 -48 13z"/>
</g>
</svg>
